<?xml version="1.0" encoding="utf-8"?>
<!-- Generator: Adobe Illustrator 19.1.0, SVG Export Plug-In . SVG Version: 6.00 Build 0)  -->
<svg version="1.1" id="Layer_1" xmlns="http://www.w3.org/2000/svg" xmlns:xlink="http://www.w3.org/1999/xlink" x="0px" y="0px"
	 viewBox="0 0 74.1 33.5" style="enable-background:new 0 0 74.1 33.5;" xml:space="preserve">
<style type="text/css">
	.st0{fill:#FFFFFF;}
</style>
<g id="XMLID_455_">
	<path id="XMLID_475_" class="st0" d="M11.5,15.4c-3.1-0.9-5.3-2-6.7-3.3c-1.4-1.3-2.1-2.9-2.1-4.8c0-2.1,0.9-3.9,2.6-5.3
		C6.9,0.7,9.2,0,11.9,0c1.9,0,3.5,0.4,5,1.1c1.5,0.7,2.6,1.7,3.4,3c0.8,1.3,1.2,2.7,1.2,4.2h-3.6c0-1.6-0.5-2.9-1.6-3.9
		c-1-0.9-2.5-1.4-4.4-1.4c-1.8,0-3.1,0.4-4.1,1.2C6.8,4.9,6.3,6,6.3,7.3c0,1.1,0.5,2,1.4,2.8c0.9,0.8,2.5,1.5,4.8,2.1
		c2.3,0.6,4,1.3,5.3,2.1c1.3,0.8,2.2,1.7,2.8,2.7c0.6,1,0.9,2.2,0.9,3.6c0,2.2-0.9,4-2.6,5.3c-1.7,1.3-4,2-6.9,2
		c-1.9,0-3.6-0.4-5.2-1.1c-1.6-0.7-2.9-1.7-3.7-2.9c-0.9-1.2-1.3-2.7-1.3-4.2h3.6c0,1.6,0.6,2.9,1.8,3.9c1.2,1,2.8,1.4,4.9,1.4
		c1.9,0,3.3-0.4,4.3-1.2c1-0.8,1.5-1.8,1.5-3.2s-0.5-2.4-1.4-3.1C15.6,16.9,13.9,16.1,11.5,15.4z"/>
	<path id="XMLID_473_" class="st0" d="M70.4,0.4v18.5c0,2.6-0.8,4.7-2.4,6.3c-1.6,1.6-3.8,2.5-6.5,2.7l-1,0c-3,0-5.3-0.8-7.1-2.4
		c-1.8-1.6-2.7-3.8-2.7-6.6V0.4h3.5v18.4c0,2,0.5,3.5,1.6,4.6s2.6,1.6,4.6,1.6c2,0,3.6-0.5,4.7-1.6c1.1-1.1,1.6-2.6,1.6-4.6V0.4
		H70.4z"/>
	<path id="XMLID_471_" class="st0" d="M30.2,33.5h-2.8V0h2.8V33.5z"/>
	<g id="XMLID_457_">
		<rect id="XMLID_470_" x="32.4" y="30.6" class="st0" width="1.8" height="3"/>
		<rect id="XMLID_469_" x="36.9" y="30.6" class="st0" width="3.6" height="3"/>
		<rect id="XMLID_468_" x="62.3" y="30.6" class="st0" width="1.8" height="3"/>
		<rect id="XMLID_467_" x="72.2" y="30.6" class="st0" width="1.8" height="3"/>
		<rect id="XMLID_466_" x="66.1" y="30.6" class="st0" width="3.6" height="3"/>
		<rect id="XMLID_465_" x="50.7" y="30.6" class="st0" width="1.8" height="3"/>
		<rect id="XMLID_464_" x="43.1" y="30.6" class="st0" width="5.4" height="3"/>
		<rect id="XMLID_463_" x="54.2" y="30.6" class="st0" width="5.4" height="3"/>
		<rect id="XMLID_462_" x="9" y="30.6" class="st0" width="7.2" height="3"/>
		<rect id="XMLID_461_" x="3.6" y="30.6" class="st0" width="3.6" height="3"/>
		<rect id="XMLID_460_" x="21.7" y="30.6" class="st0" width="3.6" height="3"/>
		<rect id="XMLID_459_" x="17.9" y="30.5" class="st0" width="1.8" height="3"/>
		<rect id="XMLID_458_" x="0" y="30.6" class="st0" width="1.8" height="3"/>
	</g>
	<polygon id="XMLID_456_" class="st0" points="46.9,0 42.6,0 32.4,11.3 32.4,11.3 32.4,15.9 32.4,15.9 43.6,28.3 47.9,28.3 
		34.5,13.6 	"/>
</g>
</svg>
